HIERARCHY
ROOT Hips
{
	OFFSET 0.000000 0.000000 0.000000
	CHANNELS 6 Xposition Yposition Zposition Xrotation Yrotation Zrotation
	JOINT LeftUpLeg_virtual
	{
		OFFSET 0.000000 0.000000 0.000000
		CHANNELS 3 Xrotation Yrotation Zrotation
		JOINT LeftUpLeg
		{
			OFFSET 15.427100 -6.655098 0.678600
			CHANNELS 3 Xrotation Yrotation Zrotation
			JOINT LeftLeg
			{
				OFFSET 4.081073 -39.591068 13.024000
				CHANNELS 3 Xrotation Yrotation Zrotation
				JOINT LeftFoot
				{
					OFFSET -4.081074 -37.707932 -15.979700
					CHANNELS 3 Xrotation Yrotation Zrotation
					JOINT LeftToeBase
					{
						OFFSET 5.346399 -15.068900 20.645000
						CHANNELS 3 Xrotation Yrotation Zrotation
						JOINT LeftToe_End
						{
							OFFSET 2.754700 0.931300 11.300900
							CHANNELS 3 Xrotation Yrotation Zrotation
							End Site
							{
								OFFSET 0 0 0
							}
						}
					}
				}
			}
		}
	}
	JOINT RightUpLeg_virtual
	{
		OFFSET 0.000000 0.000000 0.000000
		CHANNELS 3 Xrotation Yrotation Zrotation
		JOINT RightUpLeg
		{
			OFFSET -15.569500 -6.655098 0.678600
			CHANNELS 3 Xrotation Yrotation Zrotation
			JOINT RightLeg
			{
				OFFSET -4.081825 -39.591045 13.023800
				CHANNELS 3 Xrotation Yrotation Zrotation
				JOINT RightFoot
				{
					OFFSET 4.081824 -37.707954 -15.979600
					CHANNELS 3 Xrotation Yrotation Zrotation
					JOINT RightToeBase
					{
						OFFSET -5.346400 -15.068900 20.645000
						CHANNELS 3 Xrotation Yrotation Zrotation
						JOINT RightToe_End
						{
							OFFSET -2.754700 0.931300 11.300900
							CHANNELS 3 Xrotation Yrotation Zrotation
							End Site
							{
								OFFSET 0 0 0
							}
						}
					}
				}
			}
		}
	}
	JOINT Spine_virtual
	{
		OFFSET 0.000000 0.000000 0.000000
		CHANNELS 3 Xrotation Yrotation Zrotation
		JOINT Spine
		{
			OFFSET -0.279200 12.230698 -2.892100
			CHANNELS 3 Xrotation Yrotation Zrotation
			JOINT Spine1
			{
				OFFSET -0.232667 10.192268 -1.242267
				CHANNELS 3 Xrotation Yrotation Zrotation
				JOINT Spine1_split
				{
					OFFSET -0.232667 10.192268 -1.242267
					CHANNELS 3 Xrotation Yrotation Zrotation
					JOINT Spine2
					{
						OFFSET -0.232667 10.192268 -1.242267
						CHANNELS 3 Xrotation Yrotation Zrotation
						JOINT Neck_virtual
						{
							OFFSET 0.000000 0.000000 0.000000
							CHANNELS 3 Xrotation Yrotation Zrotation
							JOINT Neck
							{
								OFFSET -0.418800 17.814194 8.416900
								CHANNELS 3 Xrotation Yrotation Zrotation
								JOINT Head
								{
									OFFSET 0.000000 7.031097 3.806800
									CHANNELS 3 Xrotation Yrotation Zrotation
									JOINT HeadTop_End
									{
										OFFSET 0.000000 24.646606 12.978600
										CHANNELS 3 Xrotation Yrotation Zrotation
										End Site
										{
											OFFSET 0 0 0
										}
									}
								}
							}
						}
						JOINT LeftShoulder_virtual
						{
							OFFSET 0.000000 0.000000 0.000000
							CHANNELS 3 Xrotation Yrotation Zrotation
							JOINT LeftShoulder
							{
								OFFSET 8.476499 7.247704 -3.868750
								CHANNELS 3 Xrotation Yrotation Zrotation
								JOINT LeftShoulder_split
								{
									OFFSET 8.476499 7.247704 -3.868750
									CHANNELS 3 Xrotation Yrotation Zrotation
									JOINT LeftArm
									{
										OFFSET 9.308998 -2.777710 0.208600
										CHANNELS 3 Xrotation Yrotation Zrotation
										JOINT LeftForeArm
										{
											OFFSET 29.972298 0.000000 0.000000
											CHANNELS 3 Xrotation Yrotation Zrotation
											JOINT LeftHand
											{
												OFFSET 26.026505 0.000000 0.000000
												CHANNELS 3 Xrotation Yrotation Zrotation
												End Site
												{
													OFFSET 0 0 0
												}
											}
										}
									}
								}
							}
						}
						JOINT RightShoulder_virtual
						{
							OFFSET 0.000000 0.000000 0.000000
							CHANNELS 3 Xrotation Yrotation Zrotation
							JOINT RightShoulder
							{
								OFFSET -7.570500 7.247704 -3.868750
								CHANNELS 3 Xrotation Yrotation Zrotation
								JOINT RightShoulder_split
								{
									OFFSET -7.570500 7.247704 -3.868750
									CHANNELS 3 Xrotation Yrotation Zrotation
									JOINT RightArm
									{
										OFFSET -9.308998 -2.777710 0.208500
										CHANNELS 3 Xrotation Yrotation Zrotation
										JOINT RightForeArm
										{
											OFFSET -29.972300 0.000000 0.000000
											CHANNELS 3 Xrotation Yrotation Zrotation
											JOINT RightHand
											{
												OFFSET -26.026505 0.000000 0.000000
												CHANNELS 3 Xrotation Yrotation Zrotation
												End Site
												{
													OFFSET 0 0 0
												}
											}
										}
									}
								}
							}
						}
					}
				}
			}
		}
	}
}
MOTION
Frames: 9
Frame Time: 0.03333333
-1.012912 79.308418 1.420002 0.000000 0.000000 0.000000 -2.390537 -12.877885 -1.183809 -31.163988 14.186296 13.182593 46.863308 4.939768 13.241291 -18.506481 3.582254 -13.758999 -2.630189 -0.091053 -0.602060 0.000000 0.000000 0.000000 -2.771976 -10.403822 -0.803900 -24.374853 -22.244968 -10.338529 44.039325 -2.286923 -17.843557 -20.785504 -0.300625 11.090258 0.982920 0.781716 -0.161229 0.000000 0.000000 0.000000 -1.632565 -15.635785 -1.121594 3.793742 0.735982 1.344262 1.525759 1.480732 0.027842 2.418373 -0.856349 -0.387341 0.000000 0.000000 0.000000 0.524131 1.249900 0.181101 0.905529 -0.256180 4.190934 10.728625 12.764477 -3.683667 0.000000 0.000000 0.000000 1.700155 1.198263 -0.507109 0.620655 0.035525 16.586373 1.530673 1.723038 -2.408089 -53.283262 -50.919108 -50.482041 -3.571877 -59.591529 -3.432315 0.000000 0.000000 0.000000 1.380669 1.591120 0.494399 0.571649 -1.691806 1.596453 -0.247093 2.389864 -0.058798 -112.695116 75.226133 107.204129 -2.612386 25.503581 1.279949 0.000000 0.000000 0.000000 
-0.825886 79.270569 1.132851 0.000000 0.000000 0.000000 -2.284941 -12.943095 -1.145192 -31.024683 13.925677 13.154402 46.625600 5.182626 13.234695 -18.674275 3.601658 -13.623054 -2.203007 -0.057074 -0.833528 0.000000 0.000000 0.000000 -2.765224 -10.586544 -0.739420 -24.145176 -22.309457 -10.470898 43.955218 -2.477676 -17.540353 -20.835627 -0.407144 10.901463 1.377989 0.819233 -0.215399 0.000000 0.000000 0.000000 -1.971202 -15.903366 -1.233950 3.595091 0.800401 1.363451 1.235916 1.494710 0.094837 1.878573 -0.812688 -0.156141 0.000000 0.000000 0.000000 0.734617 1.261331 0.194193 0.802848 -0.361656 4.320971 11.518226 12.912940 -4.061383 0.000000 0.000000 0.000000 1.694726 1.215955 -0.414303 0.541485 0.288172 16.482954 1.878684 1.466267 -2.558933 -51.118065 -50.332593 -49.900546 -2.827933 -59.566414 -2.759652 0.000000 0.000000 0.000000 1.407235 1.566933 0.475838 0.476232 -2.077785 1.122055 0.597414 2.492691 -0.304844 -110.435348 75.599635 104.863997 -2.363096 26.149190 1.181273 0.000000 0.000000 0.000000 
-0.487848 79.161026 0.816574 0.000000 0.000000 0.000000 -2.222155 -13.259974 -1.096971 -30.916076 13.688602 12.891592 46.553681 5.646824 13.250243 -18.754187 3.729167 -13.814985 -1.691969 -0.000348 -1.007809 0.000000 0.000000 0.000000 -2.807915 -11.091417 -0.733082 -24.194591 -22.307884 -10.663570 44.141798 -2.632225 -17.155939 -20.590099 -0.511225 10.922395 1.114340 0.882789 -0.326214 0.000000 0.000000 0.000000 -2.194799 -16.606560 -1.279979 3.351749 1.079553 1.453777 1.027691 1.722756 0.292083 1.641333 -1.304155 0.245123 0.000000 0.000000 0.000000 0.958368 1.495008 0.264705 0.493028 -0.363197 4.626386 12.032059 13.558769 -4.798384 0.000000 0.000000 0.000000 1.673474 1.472768 -0.188441 0.370118 0.425212 16.148118 2.148718 1.225333 -2.180209 -48.338239 -50.312799 -48.928866 -2.485891 -60.069232 -2.295379 0.000000 0.000000 0.000000 1.528234 1.732465 0.489221 0.331883 -2.172803 0.306246 1.325542 2.343250 -0.315157 -110.176347 76.417283 104.102779 -2.018876 27.608586 1.044116 0.000000 0.000000 0.000000 
-0.012430 79.000946 0.487709 0.000000 0.000000 0.000000 -2.201403 -13.767284 -1.034074 -30.840114 13.505993 12.358064 46.657377 6.265274 13.280168 -18.774189 3.943788 -14.228688 -1.336007 0.056347 -1.040973 0.000000 0.000000 0.000000 -2.807669 -11.975244 -0.738404 -24.486577 -22.116234 -10.847372 44.501227 -2.796741 -16.798408 -20.243894 -0.566545 10.929064 0.477660 0.944273 -0.391306 0.000000 0.000000 0.000000 -2.242318 -17.609746 -1.243282 3.114397 1.510298 1.700681 1.067828 2.096670 0.622918 2.004621 -2.434709 0.758927 0.000000 0.000000 0.000000 1.245770 1.892384 0.448977 -0.012724 -0.225530 4.939972 12.101765 14.642177 -5.788786 0.000000 0.000000 0.000000 1.661136 1.892846 0.161618 0.163634 0.293725 15.705784 2.205956 1.340467 -1.748615 -45.660494 -50.632875 -47.681786 -2.507312 -60.509725 -2.020249 0.000000 0.000000 0.000000 1.764294 2.044959 0.597051 0.188545 -1.881647 -0.630136 1.825768 1.884731 -0.161147 -112.356161 77.431205 105.299524 -1.676173 29.213952 0.853755 0.000000 0.000000 0.000000 
0.640634 78.786827 0.188438 0.000000 0.000000 0.000000 -2.230693 -14.409609 -0.930003 -30.704381 13.423359 11.538138 46.840491 6.967594 13.255884 -18.802206 4.210178 -14.599693 -1.253230 0.108533 -0.949094 0.000000 0.000000 0.000000 -2.798781 -13.079548 -0.734176 -25.023201 -21.653257 -11.039385 45.037250 -3.079176 -16.538207 -19.801741 -0.605577 10.670105 0.240189 0.991410 -0.319381 0.000000 0.000000 0.000000 -2.071887 -18.566616 -1.136919 2.934466 1.936445 2.134956 1.357054 2.476692 1.055985 2.314498 -3.397692 0.821345 0.000000 0.000000 0.000000 1.581077 2.286913 0.779145 -0.688090 0.064570 5.110725 11.778010 15.981837 -6.844089 0.000000 0.000000 0.000000 1.679145 2.318576 0.615011 -0.057272 -0.153974 15.259529 1.836034 1.808234 -1.601379 -43.353820 -50.912985 -46.311025 -2.796449 -60.332891 -1.875598 0.000000 0.000000 0.000000 2.069638 2.400205 0.848386 0.059972 -1.243871 -1.538126 2.230593 1.091917 0.118881 -117.215431 78.170969 108.652143 -1.474135 30.432400 0.660545 0.000000 0.000000 0.000000 
1.453957 78.555382 -0.074219 0.000000 0.000000 0.000000 -2.312272 -15.146650 -0.772934 -30.501094 13.387368 10.484127 46.972819 7.629358 13.120471 -18.862522 4.461478 -14.775781 -1.342191 0.163155 -0.838324 0.000000 0.000000 0.000000 -2.725085 -14.195810 -0.662169 -26.034123 -20.938105 -11.405153 45.847413 -3.473978 -16.391267 -19.030411 -0.651935 10.301212 0.462410 1.012038 -0.108352 0.000000 0.000000 0.000000 -1.775147 -19.360443 -1.029626 2.831515 2.165107 2.722821 1.832799 2.704029 1.536106 2.661807 -4.109818 0.831451 0.000000 0.000000 0.000000 1.958369 2.493097 1.220812 -1.451927 0.429169 5.056909 11.256045 17.297374 -7.649715 0.000000 0.000000 0.000000 1.793917 2.566719 1.118908 -0.296860 -0.777551 15.031622 1.603575 2.612715 -1.684975 -42.036331 -51.253873 -45.539542 -3.127886 -59.493885 -1.760489 0.000000 0.000000 0.000000 2.406204 2.641827 1.234702 -0.053626 -0.466104 -2.296986 2.496357 0.400666 0.463696 -122.616266 78.136415 112.295803 -1.494691 30.920751 0.488091 0.000000 0.000000 0.000000 
2.346190 78.362778 -0.310841 0.000000 0.000000 0.000000 -2.420613 -15.858827 -0.603830 -30.243972 13.279616 9.401769 47.017636 8.088565 12.867689 -18.890232 4.605738 -14.723110 -1.363197 0.220220 -0.813104 0.000000 0.000000 0.000000 -2.593041 -15.009110 -0.548072 -27.512226 -20.053640 -12.089455 46.826186 -3.751556 -16.401895 -17.770192 -0.644761 10.367191 0.637986 0.997889 0.102036 0.000000 0.000000 0.000000 -1.473436 -19.951078 -1.006357 2.794370 2.062521 3.337242 2.392294 2.634523 1.963435 2.476467 -3.929878 0.470135 0.000000 0.000000 0.000000 2.341130 2.398031 1.671237 -1.996745 0.761800 4.863289 10.958442 18.129446 -7.756709 0.000000 0.000000 0.000000 2.031153 2.498055 1.593691 -0.576426 -1.224424 15.101596 1.352278 3.240361 -2.187573 -41.789041 -51.952844 -45.809348 -3.071004 -58.230716 -1.426300 0.000000 0.000000 0.000000 2.683897 2.590855 1.662502 -0.163457 0.118403 -2.851440 2.720698 0.124291 0.739633 -126.184221 77.439162 114.517260 -1.694850 30.730681 0.310440 0.000000 0.000000 0.000000 
3.223764 78.236244 -0.449795 0.000000 0.000000 0.000000 -2.531727 -16.412576 -0.504444 -29.894420 13.048247 8.488448 46.943497 8.228886 12.460043 -19.027112 4.549390 -14.388927 -1.168083 0.269918 -0.889601 0.000000 0.000000 0.000000 -2.452659 -15.342816 -0.493559 -29.114942 -19.279117 -12.963867 47.707820 -3.834212 -16.616165 -16.203623 -0.599331 11.067892 0.582591 0.967875 0.186555 0.000000 0.000000 0.000000 -1.326895 -20.148425 -1.206485 2.797028 1.571441 3.791621 2.862250 2.185134 2.224598 2.076948 -3.122594 -0.219774 0.000000 0.000000 0.000000 2.639163 1.905734 1.985434 -2.027360 0.932728 4.686855 11.201736 17.887726 -6.695105 0.000000 0.000000 0.000000 2.364381 2.023430 1.928448 -0.939724 -1.294328 15.651349 1.020424 3.640832 -2.724970 -42.248654 -53.320217 -46.994270 -2.588204 -56.773205 -0.873650 0.000000 0.000000 0.000000 2.879241 2.144934 1.997267 -0.291134 0.300182 -3.225678 2.999584 0.121420 0.883149 -126.699012 76.265196 114.675816 -2.009146 30.164977 0.102748 0.000000 0.000000 0.000000 
3.892187 78.177536 -0.373440 0.000000 0.000000 0.000000 -2.638449 -16.695597 -0.648602 -29.483014 12.633109 8.034865 46.715939 8.011038 11.921320 -19.411625 4.253941 -13.769964 -0.875753 0.289363 -0.988850 0.000000 0.000000 0.000000 -2.368266 -15.215003 -0.675706 -30.343505 -19.016005 -13.680315 48.233867 -3.858210 -16.961904 -14.823134 -0.635595 12.055629 0.620240 0.933686 0.111014 0.000000 0.000000 0.000000 -1.473116 -19.960678 -1.765568 2.783857 0.734122 3.868744 3.223664 1.392189 2.208094 1.843304 -1.799267 -0.560438 0.000000 0.000000 0.000000 2.804250 1.084588 2.023076 -1.277992 0.862874 4.733729 12.280952 16.198670 -4.118682 0.000000 0.000000 0.000000 2.787199 1.150484 2.007469 -1.370842 -0.982619 16.805865 0.433832 3.855424 -3.017242 -43.358618 -55.424752 -48.926547 -1.686142 -55.211971 -0.117149 0.000000 0.000000 0.000000 3.027099 1.320982 2.076454 -0.414473 -0.057265 -3.271911 3.046721 0.370686 0.755163 -124.402456 74.992608 113.229155 -2.346140 29.549096 -0.130825 0.000000 0.000000 0.000000 
